# File created by Blade
# Date/Time:  Tue Jan 27 20:07:51 2015
# Frame Rate: 120.000 fps
#------------------------------------------------------
:FULLY-SPECIFIED
:DEGREES
1667
root 5.259062 32.950663 -4.385016 3.504520 -7.321330 -10.314274
Spine -0.815903 8.432599 5.426988
Head 10.796504 -9.793795 4.275880
LeftShoulder -16.047997 1.018369 29.103300
LeftArm -10.089896 -18.424119 -75.511266
LeftForeArm -14.930465 -0.000000 114.189046
LeftHand 12.567235 -0.000000 1.497798
LeftHandThumb1 -26.253704 0.000000 33.147579
RightShoulder -19.875075 -18.609394 -19.901222
RightArm 8.457558 -16.832230 90.672563
RightForeArm -15.904403 -0.000000 21.110609
RightHand 17.945378 -0.000000 0.685389
RightHandThumb1 -24.326973 -0.000000 -32.862282
LeftUpLeg 5.256517 -3.310743 2.184086
LeftLeg -3.856100 -0.000000 0.000000
LeftFoot -12.548974 11.491310 -13.956637
LeftToeBase 21.334480 -0.000000 -0.000000
RightUpLeg -23.530800 -29.552883 18.209875
RightLeg 135.962475 -0.000000 -0.000000
RightFoot 34.267618 -24.114638 18.100170
RightToeBase 23.729202 -0.000000 -0.000000
1668
root 5.271165 32.947731 -4.407645 3.619023 -7.148015 -10.255519
Spine -0.764168 8.425548 5.329165
Head 10.566983 -9.896196 4.400355
LeftShoulder -16.038000 0.953720 29.121944
LeftArm -10.036036 -18.366921 -75.417995
LeftForeArm -15.004311 -0.000000 114.183626
LeftHand 12.654535 -0.000000 1.635014
LeftHandThumb1 -26.253704 0.000000 33.147579
RightShoulder -19.759417 -18.544966 -19.937258
RightArm 8.524798 -16.793688 90.707467
RightForeArm -15.975843 0.000000 21.073144
RightHand 17.945706 -0.000000 0.298675
RightHandThumb1 -24.326973 -0.000000 -32.862282
LeftUpLeg 5.072985 -3.530903 2.126558
LeftLeg -3.888647 -0.000000 0.000000
LeftFoot -12.491387 11.579281 -13.951180
LeftToeBase 21.417648 -0.000000 -0.000000
RightUpLeg -23.816802 -29.969626 18.319955
RightLeg 135.062232 -0.000000 -0.000000
RightFoot 34.384078 -23.747396 17.690506
RightToeBase 23.293417 -0.000000 -0.000000
1669
root 5.280409 32.944261 -4.429611 3.732263 -6.975303 -10.218972
Spine -0.719022 8.488169 5.233897
Head 10.382861 -10.122745 4.566647
LeftShoulder -15.961977 0.839289 29.177648
LeftArm -9.983183 -18.340491 -75.373375
LeftForeArm -15.055319 0.000000 114.191107
LeftHand 12.667873 -0.000000 1.776227
LeftHandThumb1 -26.253704 0.000000 33.147579
RightShoulder -19.779252 -18.517744 -19.908271
RightArm 8.599198 -16.792192 90.689765
RightForeArm -15.892967 0.000000 21.133782
RightHand 18.005129 -0.000000 0.621248
RightHandThumb1 -24.326973 -0.000000 -32.862282
LeftUpLeg 4.898506 -3.795653 2.098002
LeftLeg -3.920148 -0.000000 0.000000
LeftFoot -12.506113 11.656573 -14.060968
LeftToeBase 21.516488 -0.000000 -0.000000
RightUpLeg -24.120234 -30.272458 18.434067
RightLeg 133.999487 -0.000000 -0.000000
RightFoot 34.273670 -23.477122 17.556007
RightToeBase 22.892231 -0.000000 -0.000000
1670
root 5.290995 32.939729 -4.446462 3.828015 -6.845192 -10.163875
Spine -0.692245 8.591438 5.116941
Head 10.311476 -10.319671 4.717254
LeftShoulder -15.853619 0.743135 29.232129
LeftArm -9.917351 -18.343084 -75.346082
LeftForeArm -15.125048 -0.000000 114.184152
LeftHand 12.715869 -0.000000 1.863106
LeftHandThumb1 -26.253704 0.000000 33.147579
RightShoulder -19.737702 -18.441335 -19.921603
RightArm 8.573872 -16.826677 90.724633
RightForeArm -15.879691 -0.000000 21.183750
RightHand 17.817623 -0.000000 0.418730
RightHandThumb1 -24.326973 -0.000000 -32.862282
LeftUpLeg 4.726227 -3.923975 2.050968
LeftLeg -3.892372 -0.000000 0.000000
LeftFoot -12.494761 11.639288 -14.087857
LeftToeBase 21.522264 -0.000000 -0.000000
RightUpLeg -24.447794 -30.544128 18.507041
RightLeg 132.744706 -0.000000 -0.000000
RightFoot 34.079285 -23.631717 17.551025
RightToeBase 22.747449 -0.000000 -0.000000
